<svg version="1.1" xmlns="http://www.w3.org/2000/svg" viewBox="0 0 32 32" width="1.2em" height="1.2em">
	<path fill="none" d="M20,19h-2v-2h-4v2h-2v-2c0-1.1,0.9-2,2-2h4c1.1,0,2,0.9,2,2V19z M19,11c0-1.7-1.3-3-3-3s-3,1.3-3,3s1.3,3,3,3
	C17.7,14,19,12.7,19,11z M17,11c0,0.6-0.4,1-1,1c-0.6,0-1-0.4-1-1s0.4-1,1-1C16.6,10,17,10.4,17,11z" />
	<circle cx="16" cy="11" r="1" />
	<path fill="#4F46E5" d="M16,31c-0.3,0-0.6-0.1-0.8-0.4l-8.4-9.9c0-0.1-0.4-0.5-0.4-0.5C4.9,18.1,4,15.6,4,13C4,6.4,9.4,1,16,1
	c6.6,0,12,5.4,12,12c0,2.6-0.8,5.1-2.4,7.2c0,0-0.4,0.5-0.4,0.5l-8.4,10C16.6,30.9,16.3,31,16,31z" />
	<path fill="#FFFFFF" d="M16,2c6.1,0,11,4.9,11,11c0,2.4-0.8,4.7-2.2,6.6l0,0c0,0-0.3,0.4-0.3,0.4L16,30l-8.4-9.9c0-0.1-0.3-0.5-0.3-0.5
	C5.8,17.7,5,15.4,5,13C5,6.9,9.9,2,16,2 M16,0C16,0,16,0,16,0C8.8,0,3,5.8,3,13c0,2.8,0.9,5.6,2.6,7.8c0,0,0.4,0.5,0.4,0.5l8.4,9.9
	c0.4,0.4,0.9,0.7,1.5,0.7c0.6,0,1.1-0.3,1.5-0.7l8.4-10c0.1-0.1,0.4-0.5,0.4-0.5c0,0,0,0,0-0.1c1.7-2.2,2.6-5,2.6-7.8
	C29,5.8,23.2,0,16,0L16,0z" />
	<path fill="#FFFFFF" d="M16,8c1.7,0,3,1.3,3,3s-1.3,3-3,3s-3-1.3-3-3C13,9.3,14.3,8,16,8z" />
	<path fill="#FFFFFF" d="M20,19h-2v-2h-4v2h-2v-2c0-1.1,0.9-2,2-2h4c1.1,0,2,0.9,2,2V19z" />
</svg>